<svg xmlns="http://www.w3.org/2000/svg" viewBox="6 6 100 82" fill="none">
  <title>Dominio de la Sierra — DS</title>
  <style>.ink{fill:#512638;stroke:#512638}@media(prefers-color-scheme:dark){.ink{fill:#F3E9D8;stroke:#F3E9D8}}</style>
  <defs>
    <path id="letter-s" d="M94 12h1.6l-2 17h-1.5c-.4-9.8-6.2-15-14.6-15-7.8 0-12.5 4.4-12.5 11.3 0 7.1 6 10.7 16.3 15.6C92.4 47.7 99 53.1 99 63.8c0 12.4-9.9 20.2-23.9 20.2-9.1 0-16.7-3.2-21.1-7.7L51.8 82h-1.6l1.9-18.5h1.6c1.3 10.7 10 17 22 17 8.8 0 15.3-5.1 15.3-12.7 0-7.7-6.5-11.6-17.2-16.8C61.3 45 55 39.3 55 29c0-11.6 9.2-19 22.1-19 7 0 12.6 2.1 15.7 5.7L94 12Z"/>
    <mask id="ds-weave" maskUnits="userSpaceOnUse" x="0" y="0" width="112" height="96">
      <path d="M0 0h112v96H0Z" fill="white"/>
      <use href="#letter-s" fill="black" stroke="black" stroke-width="4" stroke-linejoin="round"/>
    </mask>
  </defs>
  <path class="ink" stroke-width="1.2" d="M10 10h24C61 10 76 23 76 47S61 84 34 84H10v-2l8-2V14l-8-2v-2Zm18 5v64h5c21 0 30-11 30-32s-9-32-30-32h-5Z" fill-rule="evenodd" mask="url(#ds-weave)"/>
  <use class="ink" href="#letter-s" stroke-width="1.2"/>
</svg>
